<svg xmlns="http://www.w3.org/2000/svg" width="960" height="360" viewBox="0 0 960 360">
<rect width="100%" height="100%" fill="white"/>
<text x="250.0" y="32.0" font-size="16" text-anchor="middle" fill="#222">Metodo do cotovelo</text>
<line x1="70" y1="290" x2="430" y2="290" stroke="#444"/>
<line x1="70" y1="70" x2="70" y2="290" stroke="#444"/>
<polyline points="70.0,70.0 130.0,186.0 190.0,237.3 250.0,260.3 310.0,274.3 370.0,283.9 430.0,290.0" fill="none" stroke="#2f6fbb" stroke-width="3"/>
<circle cx="70.0" cy="70.0" r="4" fill="#2f6fbb"/>
<text x="70.0" y="312.0" font-size="11" text-anchor="middle" fill="#222">2</text>
<text x="70.0" y="61.0" font-size="10" text-anchor="middle" fill="#222">26k</text>
<circle cx="130.0" cy="186.0" r="4" fill="#2f6fbb"/>
<text x="130.0" y="312.0" font-size="11" text-anchor="middle" fill="#222">3</text>
<text x="130.0" y="177.0" font-size="10" text-anchor="middle" fill="#222">15k</text>
<circle cx="190.0" cy="237.3" r="4" fill="#2f6fbb"/>
<text x="190.0" y="312.0" font-size="11" text-anchor="middle" fill="#222">4</text>
<text x="190.0" y="228.3" font-size="10" text-anchor="middle" fill="#222">11k</text>
<circle cx="250.0" cy="260.3" r="4" fill="#2f6fbb"/>
<text x="250.0" y="312.0" font-size="11" text-anchor="middle" fill="#222">5</text>
<text x="250.0" y="251.3" font-size="10" text-anchor="middle" fill="#222">8k</text>
<circle cx="310.0" cy="274.3" r="4" fill="#2f6fbb"/>
<text x="310.0" y="312.0" font-size="11" text-anchor="middle" fill="#222">6</text>
<text x="310.0" y="265.3" font-size="10" text-anchor="middle" fill="#222">7k</text>
<circle cx="370.0" cy="283.9" r="4" fill="#2f6fbb"/>
<text x="370.0" y="312.0" font-size="11" text-anchor="middle" fill="#222">7</text>
<text x="370.0" y="274.9" font-size="10" text-anchor="middle" fill="#222">6k</text>
<circle cx="430.0" cy="290.0" r="4" fill="#2f6fbb"/>
<text x="430.0" y="312.0" font-size="11" text-anchor="middle" fill="#222">8</text>
<text x="430.0" y="281.0" font-size="10" text-anchor="middle" fill="#222">6k</text>
<text x="250.0" y="338.0" font-size="12" text-anchor="middle" fill="#222">Numero de grupos (k)</text>
<text x="720.0" y="32.0" font-size="16" text-anchor="middle" fill="#222">Indice de silhueta</text>
<line x1="540" y1="290" x2="900" y2="290" stroke="#444"/>
<line x1="540" y1="70" x2="540" y2="290" stroke="#444"/>
<polyline points="540.0,70.0 600.0,171.4 660.0,192.6 720.0,231.3 780.0,254.3 840.0,274.2 900.0,290.0" fill="none" stroke="#2f6fbb" stroke-width="3"/>
<circle cx="540.0" cy="70.0" r="4" fill="#2f6fbb"/>
<text x="540.0" y="312.0" font-size="11" text-anchor="middle" fill="#222">2</text>
<text x="540.0" y="61.0" font-size="10" text-anchor="middle" fill="#222">0.59</text>
<circle cx="600.0" cy="171.4" r="4" fill="#2f6fbb"/>
<text x="600.0" y="312.0" font-size="11" text-anchor="middle" fill="#222">3</text>
<text x="600.0" y="162.4" font-size="10" text-anchor="middle" fill="#222">0.45</text>
<circle cx="660.0" cy="192.6" r="4" fill="#2f6fbb"/>
<text x="660.0" y="312.0" font-size="11" text-anchor="middle" fill="#222">4</text>
<text x="660.0" y="183.6" font-size="10" text-anchor="middle" fill="#222">0.43</text>
<circle cx="720.0" cy="231.3" r="4" fill="#2f6fbb"/>
<text x="720.0" y="312.0" font-size="11" text-anchor="middle" fill="#222">5</text>
<text x="720.0" y="222.3" font-size="10" text-anchor="middle" fill="#222">0.37</text>
<circle cx="780.0" cy="254.3" r="4" fill="#2f6fbb"/>
<text x="780.0" y="312.0" font-size="11" text-anchor="middle" fill="#222">6</text>
<text x="780.0" y="245.3" font-size="10" text-anchor="middle" fill="#222">0.34</text>
<circle cx="840.0" cy="274.2" r="4" fill="#2f6fbb"/>
<text x="840.0" y="312.0" font-size="11" text-anchor="middle" fill="#222">7</text>
<text x="840.0" y="265.2" font-size="10" text-anchor="middle" fill="#222">0.32</text>
<circle cx="900.0" cy="290.0" r="4" fill="#2f6fbb"/>
<text x="900.0" y="312.0" font-size="11" text-anchor="middle" fill="#222">8</text>
<text x="900.0" y="281.0" font-size="10" text-anchor="middle" fill="#222">0.29</text>
<text x="720.0" y="338.0" font-size="12" text-anchor="middle" fill="#222">Numero de grupos (k)</text>
</svg>